<svg width="562" height="32" viewBox="0 0 562 32" fill="none" xmlns="http://www.w3.org/2000/svg">
<path d="M8.096 25V7.528H0.896V2.6H20.896V7.528H13.728V25H8.096ZM26.953 25.256C25.0117 25.256 23.5823 24.7333 22.665 23.688C21.7477 22.6427 21.289 21.2667 21.289 19.56V8.488H26.729V18.12C26.729 18.9307 26.921 19.5067 27.305 19.848C27.689 20.1893 28.2757 20.36 29.065 20.36C29.385 20.36 29.6837 20.328 29.961 20.264C30.2383 20.1787 30.5157 20.0827 30.793 19.976L31.689 19.56V8.488H37.161V25H33.097L32.425 22.088L33.481 22.856L31.497 23.944C30.7077 24.3493 29.929 24.6693 29.161 24.904C28.4143 25.1387 27.6783 25.256 26.953 25.256ZM48.8233 31.688C47.9273 31.688 46.9779 31.6133 45.9753 31.464C44.9726 31.3147 43.9913 31.112 43.0312 30.856L41.8153 30.504L42.6793 26.632L43.8633 26.792C44.5673 26.8987 45.2819 26.9947 46.0073 27.08C46.7539 27.1653 47.4473 27.208 48.0873 27.208C49.2819 27.208 50.2313 27.0267 50.9353 26.664C51.6393 26.3227 51.9913 25.6827 51.9913 24.744V22.984L51.2233 23.336C50.6259 23.6347 49.9966 23.8587 49.3353 24.008C48.6739 24.1573 48.0339 24.232 47.4153 24.232C46.1779 24.232 45.1006 24.008 44.1833 23.56C43.2873 23.112 42.5406 22.504 41.9433 21.736C41.3459 20.968 40.8979 20.104 40.5993 19.144C40.3006 18.184 40.1513 17.2133 40.1513 16.232C40.1513 14.76 40.4286 13.416 40.9833 12.2C41.5593 10.984 42.3806 10.0133 43.4473 9.288C44.5353 8.56267 45.8579 8.2 47.4153 8.2C48.1193 8.2 48.8553 8.31733 49.6233 8.552C50.3913 8.76533 51.1059 9.05333 51.7673 9.416L53.0793 10.088L53.4313 8.488H57.4313V24.232C57.4313 25.96 57.0579 27.368 56.3113 28.456C55.5859 29.5653 54.5726 30.376 53.2713 30.888C51.9699 31.4213 50.4873 31.688 48.8233 31.688ZM45.6553 16.2C45.6553 17.032 45.7939 17.7147 46.0713 18.248C46.3486 18.76 46.7433 19.1333 47.2552 19.368C47.7673 19.6027 48.3753 19.72 49.0793 19.72C49.3993 19.72 49.7406 19.688 50.1033 19.624C50.4659 19.5387 50.8179 19.432 51.1593 19.304L51.9913 19.016V13.512L51.1913 13.16C50.8286 12.9893 50.4659 12.8613 50.1033 12.776C49.7406 12.6907 49.3886 12.648 49.0473 12.648C48.3006 12.648 47.6713 12.7867 47.1593 13.064C46.6473 13.3413 46.2633 13.7467 46.0073 14.28C45.7726 14.792 45.6553 15.432 45.6553 16.2ZM65.2973 25.256C64.4013 25.256 63.5479 25.096 62.7373 24.776C61.9266 24.456 61.2653 23.9547 60.7533 23.272C60.2413 22.568 59.9853 21.6933 59.9853 20.648C59.9853 19.24 60.4119 18.1627 61.2653 17.416C62.1399 16.648 63.4733 16.072 65.2653 15.688L69.9693 14.632V14.568C69.9906 13.8853 69.7559 13.384 69.2653 13.064C68.7746 12.7227 67.9639 12.552 66.8333 12.552C66.1719 12.552 65.4893 12.5947 64.7853 12.68C64.0813 12.744 63.3879 12.84 62.7053 12.968L61.8733 13.128L61.0733 9.768L62.0973 9.384C63.1426 9.02133 64.1666 8.73333 65.1693 8.52C66.1719 8.30667 67.1639 8.2 68.1453 8.2C70.3213 8.2 72.0706 8.75467 73.3933 9.864C74.7159 10.952 75.3773 12.5627 75.3773 14.696V19.944C75.3773 20.4773 75.5159 20.8507 75.7933 21.064C76.0919 21.2773 76.6466 21.4373 77.4573 21.544L77.1053 25C76.8066 25.064 76.4973 25.1173 76.1772 25.16C75.8786 25.224 75.6226 25.256 75.4093 25.256C74.1719 25.256 73.1799 25.0213 72.4333 24.552C71.7079 24.0613 71.1533 23.4533 70.7693 22.728L70.0653 23.336C69.3613 23.976 68.5826 24.456 67.7292 24.776C66.8759 25.096 66.0653 25.256 65.2973 25.256ZM66.9613 21.32C67.3026 21.32 67.6759 21.2667 68.0813 21.16C68.5079 21.032 68.9239 20.84 69.3293 20.584L69.9693 20.232V17.384L66.6413 18.312C66.0653 18.4613 65.6706 18.6747 65.4573 18.952C65.2439 19.208 65.1373 19.5173 65.1373 19.88C65.1373 20.3493 65.2973 20.712 65.6173 20.968C65.9586 21.2027 66.4066 21.32 66.9613 21.32ZM85.7493 25.256C84.7893 25.256 83.8079 25.1707 82.8053 25C81.8026 24.8293 80.7999 24.5947 79.7973 24.296L78.8693 24.008L79.6693 20.392L80.5013 20.552C81.3119 20.68 82.0906 20.7867 82.8373 20.872C83.5839 20.936 84.3093 20.968 85.0133 20.968C85.6533 20.968 86.1333 20.904 86.4533 20.776C86.7946 20.6267 86.9653 20.392 86.9653 20.072C86.9653 19.88 86.9013 19.7093 86.7733 19.56C86.6453 19.4107 86.3893 19.2507 86.0052 19.08C85.6426 18.9093 85.0879 18.7173 84.3413 18.504C82.9759 18.12 81.8986 17.704 81.1093 17.256C80.3413 16.808 79.7973 16.264 79.4773 15.624C79.1573 14.984 78.9973 14.1733 78.9973 13.192C79.0186 12.0827 79.3279 11.1653 79.9253 10.44C80.5439 9.69333 81.3866 9.13867 82.4533 8.776C83.5199 8.392 84.7786 8.2 86.2292 8.2C87.1253 8.2 88.0319 8.27467 88.9493 8.424C89.8879 8.552 90.8373 8.76533 91.7973 9.064L92.3413 9.256L91.6693 12.712L90.9973 12.648C90.2079 12.5413 89.4933 12.4773 88.8533 12.456C88.2346 12.4133 87.7013 12.392 87.2533 12.392C86.4213 12.392 85.7706 12.456 85.3013 12.584C84.8319 12.712 84.5973 12.904 84.5973 13.16C84.5973 13.3733 84.6613 13.544 84.7893 13.672C84.9386 13.7787 85.2479 13.9067 85.7173 14.056C86.2079 14.2053 86.9439 14.4187 87.9253 14.696C89.1413 14.9947 90.1013 15.368 90.8053 15.816C91.5093 16.2427 92.0106 16.7653 92.3093 17.384C92.6293 17.9813 92.7893 18.7173 92.7893 19.592C92.7893 20.8507 92.4799 21.9067 91.8613 22.76C91.2639 23.592 90.4426 24.2213 89.3973 24.648C88.3519 25.0533 87.1359 25.256 85.7493 25.256ZM105.583 25V2.6H111.215V20.072H122.287V25H105.583ZM132.514 25.288C130.679 25.288 129.111 24.936 127.81 24.232C126.508 23.5067 125.495 22.504 124.77 21.224C124.066 19.944 123.714 18.4507 123.714 16.744C123.714 15.016 124.087 13.512 124.834 12.232C125.58 10.952 126.615 9.96 127.938 9.256C129.26 8.552 130.818 8.2 132.61 8.2C134.423 8.2 135.98 8.56267 137.282 9.288C138.604 9.992 139.618 10.984 140.322 12.264C141.026 13.544 141.378 15.0373 141.378 16.744C141.378 18.4507 141.004 19.944 140.258 21.224C139.511 22.504 138.476 23.5067 137.154 24.232C135.831 24.936 134.284 25.288 132.514 25.288ZM132.546 20.776C133.228 20.776 133.815 20.6373 134.306 20.36C134.796 20.0613 135.17 19.6133 135.426 19.016C135.682 18.4187 135.81 17.6613 135.81 16.744C135.81 15.8053 135.682 15.048 135.426 14.472C135.191 13.8747 134.828 13.4373 134.338 13.16C133.847 12.8613 133.25 12.712 132.546 12.712C131.884 12.712 131.298 12.8613 130.786 13.16C130.295 13.4373 129.911 13.8747 129.634 14.472C129.356 15.048 129.218 15.8053 129.218 16.744C129.218 17.6613 129.356 18.4187 129.634 19.016C129.911 19.6133 130.295 20.0613 130.786 20.36C131.276 20.6373 131.863 20.776 132.546 20.776ZM144.356 25V8.488H148.324L148.868 10.6L150.116 9.608C150.713 9.13867 151.332 8.78667 151.972 8.552C152.633 8.31733 153.263 8.2 153.86 8.2C154.116 8.17867 154.383 8.22133 154.66 8.328C154.959 8.41333 155.247 8.56267 155.524 8.776V13.32C154.905 13.3413 154.308 13.3947 153.732 13.48C153.156 13.544 152.516 13.6933 151.812 13.928L149.796 14.472V25H144.356ZM165.993 25.256C164.308 25.256 162.761 24.936 161.353 24.296C159.966 23.6347 158.846 22.6747 157.993 21.416C157.161 20.136 156.745 18.5893 156.745 16.776C156.745 15.4107 156.98 14.1947 157.449 13.128C157.94 12.0613 158.59 11.1653 159.401 10.44C160.233 9.69333 161.182 9.13867 162.249 8.776C163.316 8.392 164.436 8.2 165.609 8.2C167.316 8.2 168.756 8.56267 169.929 9.288C171.124 9.992 172.03 10.984 172.649 12.264C173.289 13.544 173.609 15.0373 173.609 16.744V18.12H162.345C162.494 18.8027 162.772 19.3573 163.177 19.784C163.582 20.1893 164.084 20.488 164.681 20.68C165.3 20.872 165.993 20.968 166.761 20.968C167.294 20.968 167.86 20.9253 168.457 20.84C169.076 20.7547 169.705 20.6267 170.345 20.456L171.913 20.072L173.289 23.432L171.753 24.072C170.793 24.4773 169.822 24.776 168.841 24.968C167.86 25.16 166.91 25.256 165.993 25.256ZM162.345 14.888H168.745C168.617 13.992 168.308 13.32 167.817 12.872C167.326 12.4027 166.622 12.168 165.705 12.168C165.129 12.168 164.606 12.264 164.137 12.456C163.689 12.648 163.316 12.9467 163.017 13.352C162.718 13.7573 162.494 14.2693 162.345 14.888ZM176.262 25V8.488H180.326L180.742 10.28L181.894 9.608C182.641 9.18133 183.388 8.84 184.134 8.584C184.902 8.328 185.67 8.2 186.438 8.2C187.718 8.2 188.774 8.44533 189.606 8.936C190.46 9.42667 191.089 10.1093 191.494 10.984C191.921 11.8373 192.134 12.8187 192.134 13.928V25H186.662V15.336C186.662 14.6107 186.481 14.056 186.118 13.672C185.777 13.288 185.19 13.096 184.358 13.096C184.038 13.096 183.729 13.1387 183.43 13.224C183.153 13.288 182.876 13.3733 182.598 13.48L181.702 13.864V25H176.262ZM197.094 25V15.336C197.094 14.6107 196.913 14.056 196.55 13.672C196.209 13.288 195.612 13.096 194.758 13.096C194.438 13.096 194.129 13.1387 193.83 13.224C193.553 13.288 193.276 13.3733 192.998 13.48L191.942 13.96L190.438 10.728L192.422 9.608C193.19 9.18133 193.958 8.84 194.726 8.584C195.494 8.328 196.262 8.2 197.03 8.2C198.289 8.2 199.324 8.44533 200.134 8.936C200.966 9.42667 201.585 10.1093 201.99 10.984C202.417 11.8373 202.63 12.8187 202.63 13.928V25H197.094ZM215.989 25V2.6H221.621V25H215.989ZM225.731 31.944V8.488H229.763L230.115 10.12L231.587 9.352C232.248 8.98933 232.952 8.712 233.699 8.52C234.467 8.30667 235.16 8.2 235.779 8.2C237.251 8.2 238.52 8.57333 239.587 9.32C240.675 10.0453 241.518 11.048 242.115 12.328C242.712 13.608 243.011 15.08 243.011 16.744C243.011 17.8747 242.851 18.952 242.531 19.976C242.232 21 241.774 21.9173 241.155 22.728C240.536 23.5173 239.768 24.136 238.851 24.584C237.955 25.032 236.899 25.256 235.683 25.256C235.086 25.256 234.467 25.1813 233.827 25.032C233.187 24.8827 232.579 24.6693 232.003 24.392L231.171 23.976V31.24L225.731 31.944ZM234.115 20.616C234.84 20.616 235.459 20.4773 235.971 20.2C236.483 19.9227 236.867 19.5067 237.123 18.952C237.379 18.376 237.507 17.64 237.507 16.744C237.507 15.848 237.39 15.1227 237.155 14.568C236.92 13.992 236.547 13.5653 236.035 13.288C235.523 13.0107 234.883 12.872 234.115 12.872C233.774 12.872 233.432 12.9253 233.091 13.032C232.75 13.1173 232.387 13.2453 232.003 13.416L231.171 13.768V19.88L231.971 20.168C232.355 20.3173 232.728 20.4347 233.091 20.52C233.454 20.584 233.795 20.616 234.115 20.616ZM252.983 25.32C251.81 25.32 250.658 25.2347 249.527 25.064C248.397 24.8933 247.287 24.6587 246.199 24.36L244.247 23.816L245.143 19.496L247.671 19.88C248.418 19.9867 249.282 20.0933 250.263 20.2C251.266 20.2853 252.247 20.328 253.207 20.328C254.317 20.328 255.117 20.1787 255.607 19.88C256.119 19.56 256.375 19.112 256.375 18.536C256.375 18.216 256.29 17.9387 256.119 17.704C255.949 17.4693 255.554 17.224 254.935 16.968C254.338 16.6907 253.399 16.36 252.119 15.976C250.349 15.4427 248.941 14.8987 247.895 14.344C246.85 13.768 246.103 13.0747 245.655 12.264C245.229 11.432 245.015 10.376 245.015 9.096C245.015 7.496 245.41 6.19467 246.199 5.192C247.01 4.18933 248.109 3.45333 249.495 2.984C250.903 2.51467 252.482 2.28 254.231 2.28C255.213 2.28 256.215 2.35467 257.239 2.504C258.285 2.65333 259.319 2.86667 260.343 3.144L261.879 3.528L261.079 7.784L258.647 7.496C258.071 7.432 257.41 7.368 256.663 7.304C255.938 7.24 255.127 7.208 254.231 7.208C253.058 7.208 252.183 7.35733 251.607 7.656C251.031 7.95467 250.743 8.41333 250.743 9.032C250.743 9.33067 250.839 9.59733 251.031 9.832C251.245 10.0453 251.682 10.2693 252.343 10.504C253.026 10.7173 254.05 11.016 255.415 11.4C257.165 11.8267 258.541 12.3387 259.543 12.936C260.546 13.5333 261.261 14.2373 261.687 15.048C262.114 15.8373 262.327 16.7973 262.327 17.928C262.327 19.6133 261.911 21 261.079 22.088C260.247 23.176 259.127 23.9867 257.719 24.52C256.311 25.0533 254.733 25.32 252.983 25.32ZM271.047 25.256C269.105 25.256 267.676 24.7333 266.759 23.688C265.841 22.6427 265.383 21.2667 265.383 19.56V8.488H270.823V18.12C270.823 18.9307 271.015 19.5067 271.399 19.848C271.783 20.1893 272.369 20.36 273.159 20.36C273.479 20.36 273.777 20.328 274.055 20.264C274.332 20.1787 274.609 20.0827 274.887 19.976L275.783 19.56V8.488H281.255V25H277.191L276.519 22.088L277.575 22.856L275.591 23.944C274.801 24.3493 274.023 24.6693 273.255 24.904C272.508 25.1387 271.772 25.256 271.047 25.256ZM284.981 25V8.488H289.045L289.461 10.28L290.613 9.608C291.36 9.18133 292.106 8.84 292.853 8.584C293.621 8.328 294.389 8.2 295.157 8.2C296.437 8.2 297.493 8.44533 298.325 8.936C299.178 9.42667 299.808 10.1093 300.213 10.984C300.64 11.8373 300.853 12.8187 300.853 13.928V25H295.381V15.336C295.381 14.6107 295.2 14.056 294.837 13.672C294.496 13.288 293.909 13.096 293.077 13.096C292.757 13.096 292.448 13.1387 292.149 13.224C291.872 13.288 291.594 13.3733 291.317 13.48L290.421 13.864V25H284.981ZM305.813 25V15.336C305.813 14.6107 305.632 14.056 305.269 13.672C304.928 13.288 304.33 13.096 303.477 13.096C303.157 13.096 302.848 13.1387 302.549 13.224C302.272 13.288 301.994 13.3733 301.717 13.48L300.661 13.96L299.157 10.728L301.141 9.608C301.909 9.18133 302.677 8.84 303.445 8.584C304.213 8.328 304.981 8.2 305.749 8.2C307.008 8.2 308.042 8.44533 308.853 8.936C309.685 9.42667 310.304 10.1093 310.709 10.984C311.136 11.8373 311.349 12.8187 311.349 13.928V25H305.813ZM324.708 25V2.6H333.412C335.844 2.6 337.967 3.016 339.78 3.848C341.593 4.68 343.001 5.928 344.004 7.592C345.028 9.256 345.54 11.336 345.54 13.832C345.54 16.1787 345.039 18.1947 344.036 19.88C343.033 21.544 341.604 22.8133 339.748 23.688C337.892 24.5627 335.695 25 333.156 25H324.708ZM330.34 20.072H333.252C334.724 20.072 335.94 19.8373 336.9 19.368C337.86 18.8987 338.575 18.2053 339.044 17.288C339.535 16.3707 339.78 15.2187 339.78 13.832C339.78 12.296 339.545 11.0693 339.076 10.152C338.628 9.23467 337.924 8.57333 336.964 8.168C336.004 7.74133 334.767 7.528 333.252 7.528H330.34V20.072ZM356.826 25.288C354.992 25.288 353.424 24.936 352.122 24.232C350.821 23.5067 349.808 22.504 349.082 21.224C348.378 19.944 348.026 18.4507 348.026 16.744C348.026 15.016 348.4 13.512 349.146 12.232C349.893 10.952 350.928 9.96 352.25 9.256C353.573 8.552 355.13 8.2 356.922 8.2C358.736 8.2 360.293 8.56267 361.594 9.288C362.917 9.992 363.93 10.984 364.634 12.264C365.338 13.544 365.69 15.0373 365.69 16.744C365.69 18.4507 365.317 19.944 364.57 21.224C363.824 22.504 362.789 23.5067 361.466 24.232C360.144 24.936 358.597 25.288 356.826 25.288ZM356.858 20.776C357.541 20.776 358.128 20.6373 358.618 20.36C359.109 20.0613 359.482 19.6133 359.738 19.016C359.994 18.4187 360.122 17.6613 360.122 16.744C360.122 15.8053 359.994 15.048 359.738 14.472C359.504 13.8747 359.141 13.4373 358.65 13.16C358.16 12.8613 357.562 12.712 356.858 12.712C356.197 12.712 355.61 12.8613 355.098 13.16C354.608 13.4373 354.224 13.8747 353.946 14.472C353.669 15.048 353.53 15.8053 353.53 16.744C353.53 17.6613 353.669 18.4187 353.946 19.016C354.224 19.6133 354.608 20.0613 355.098 20.36C355.589 20.6373 356.176 20.776 356.858 20.776ZM373.885 25.256C371.965 25.256 370.589 24.8293 369.757 23.976C368.925 23.1227 368.509 21.9493 368.509 20.456V1.384L373.949 0.359999V19.56C373.949 19.9867 374.087 20.3173 374.365 20.552C374.642 20.7653 375.079 20.872 375.677 20.872C375.805 20.872 375.954 20.872 376.125 20.872C376.295 20.8507 376.477 20.8293 376.669 20.808L376.509 24.776C376.125 24.9253 375.698 25.0427 375.229 25.128C374.759 25.2133 374.311 25.256 373.885 25.256ZM386.576 25.288C384.742 25.288 383.174 24.936 381.872 24.232C380.571 23.5067 379.558 22.504 378.832 21.224C378.128 19.944 377.776 18.4507 377.776 16.744C377.776 15.016 378.15 13.512 378.896 12.232C379.643 10.952 380.678 9.96 382 9.256C383.323 8.552 384.88 8.2 386.672 8.2C388.486 8.2 390.043 8.56267 391.344 9.288C392.667 9.992 393.68 10.984 394.384 12.264C395.088 13.544 395.44 15.0373 395.44 16.744C395.44 18.4507 395.067 19.944 394.32 21.224C393.574 22.504 392.539 23.5067 391.216 24.232C389.894 24.936 388.347 25.288 386.576 25.288ZM386.608 20.776C387.291 20.776 387.878 20.6373 388.368 20.36C388.859 20.0613 389.232 19.6133 389.488 19.016C389.744 18.4187 389.872 17.6613 389.872 16.744C389.872 15.8053 389.744 15.048 389.488 14.472C389.254 13.8747 388.891 13.4373 388.4 13.16C387.91 12.8613 387.312 12.712 386.608 12.712C385.947 12.712 385.36 12.8613 384.848 13.16C384.358 13.4373 383.974 13.8747 383.696 14.472C383.419 15.048 383.28 15.8053 383.28 16.744C383.28 17.6613 383.419 18.4187 383.696 19.016C383.974 19.6133 384.358 20.0613 384.848 20.36C385.339 20.6373 385.926 20.776 386.608 20.776ZM398.419 25V8.488H402.387L402.931 10.6L404.179 9.608C404.776 9.13867 405.395 8.78667 406.035 8.552C406.696 8.31733 407.325 8.2 407.923 8.2C408.179 8.17867 408.445 8.22133 408.723 8.328C409.021 8.41333 409.309 8.56267 409.587 8.776V13.32C408.968 13.3413 408.371 13.3947 407.795 13.48C407.219 13.544 406.579 13.6933 405.875 13.928L403.859 14.472V25H398.419ZM429.39 25.32C428.216 25.32 427.064 25.2347 425.934 25.064C424.803 24.8933 423.694 24.6587 422.606 24.36L420.654 23.816L421.549 19.496L424.078 19.88C424.824 19.9867 425.688 20.0933 426.67 20.2C427.672 20.2853 428.654 20.328 429.614 20.328C430.723 20.328 431.523 20.1787 432.014 19.88C432.526 19.56 432.782 19.112 432.782 18.536C432.782 18.216 432.696 17.9387 432.526 17.704C432.355 17.4693 431.96 17.224 431.342 16.968C430.744 16.6907 429.806 16.36 428.526 15.976C426.755 15.4427 425.347 14.8987 424.302 14.344C423.256 13.768 422.51 13.0747 422.062 12.264C421.635 11.432 421.422 10.376 421.422 9.096C421.422 7.496 421.816 6.19467 422.606 5.192C423.416 4.18933 424.515 3.45333 425.902 2.984C427.31 2.51467 428.888 2.28 430.638 2.28C431.619 2.28 432.622 2.35467 433.646 2.504C434.691 2.65333 435.726 2.86667 436.75 3.144L438.286 3.528L437.486 7.784L435.054 7.496C434.478 7.432 433.816 7.368 433.07 7.304C432.344 7.24 431.534 7.208 430.638 7.208C429.464 7.208 428.59 7.35733 428.014 7.656C427.438 7.95467 427.15 8.41333 427.15 9.032C427.15 9.33067 427.246 9.59733 427.438 9.832C427.651 10.0453 428.088 10.2693 428.75 10.504C429.432 10.7173 430.456 11.016 431.822 11.4C433.571 11.8267 434.947 12.3387 435.95 12.936C436.952 13.5333 437.667 14.2373 438.094 15.048C438.52 15.8373 438.734 16.7973 438.734 17.928C438.734 19.6133 438.318 21 437.486 22.088C436.654 23.176 435.534 23.9867 434.126 24.52C432.718 25.0533 431.139 25.32 429.39 25.32ZM442.333 25V2.6H447.965V25H442.333ZM459.499 25.256C457.771 25.256 456.427 24.872 455.467 24.104C454.507 23.336 454.027 22.088 454.027 20.36V12.904H450.603V9.384L454.027 8.488V4.776L459.499 3.464V8.488H464.331V12.904H459.499V18.632C459.499 19.336 459.616 19.8693 459.851 20.232C460.107 20.5733 460.704 20.744 461.643 20.744C461.899 20.744 462.155 20.7333 462.411 20.712C462.667 20.6907 462.944 20.6587 463.243 20.616L464.139 20.488L464.651 24.36L463.915 24.552C463.168 24.7653 462.411 24.936 461.643 25.064C460.896 25.192 460.181 25.256 459.499 25.256ZM475.009 25L483.393 2.6H489.793L498.273 25H492.225L486.625 8.456H486.529L480.833 25H475.009ZM481.345 21.192V16.776H491.809V21.192H481.345ZM500.512 25V8.488H504.576L504.992 10.28L506.144 9.608C506.891 9.18133 507.638 8.84 508.384 8.584C509.152 8.328 509.92 8.2 510.688 8.2C511.968 8.2 513.024 8.44533 513.856 8.936C514.71 9.42667 515.339 10.1093 515.744 10.984C516.171 11.8373 516.384 12.8187 516.384 13.928V25H510.912V15.336C510.912 14.6107 510.731 14.056 510.368 13.672C510.027 13.288 509.44 13.096 508.608 13.096C508.288 13.096 507.979 13.1387 507.68 13.224C507.403 13.288 507.126 13.3733 506.848 13.48L505.952 13.864V25H500.512ZM521.344 25V15.336C521.344 14.6107 521.163 14.056 520.8 13.672C520.459 13.288 519.862 13.096 519.008 13.096C518.688 13.096 518.379 13.1387 518.08 13.224C517.803 13.288 517.526 13.3733 517.248 13.48L516.192 13.96L514.688 10.728L516.672 9.608C517.44 9.18133 518.208 8.84 518.976 8.584C519.744 8.328 520.512 8.2 521.28 8.2C522.539 8.2 523.574 8.44533 524.384 8.936C525.216 9.42667 525.835 10.1093 526.24 10.984C526.667 11.8373 526.88 12.8187 526.88 13.928V25H521.344ZM538.899 25.256C537.214 25.256 535.667 24.936 534.259 24.296C532.873 23.6347 531.753 22.6747 530.899 21.416C530.067 20.136 529.651 18.5893 529.651 16.776C529.651 15.4107 529.886 14.1947 530.355 13.128C530.846 12.0613 531.497 11.1653 532.307 10.44C533.139 9.69333 534.089 9.13867 535.155 8.776C536.222 8.392 537.342 8.2 538.515 8.2C540.222 8.2 541.662 8.56267 542.835 9.288C544.03 9.992 544.937 10.984 545.555 12.264C546.195 13.544 546.515 15.0373 546.515 16.744V18.12H535.251C535.401 18.8027 535.678 19.3573 536.083 19.784C536.489 20.1893 536.99 20.488 537.587 20.68C538.206 20.872 538.899 20.968 539.667 20.968C540.201 20.968 540.766 20.9253 541.363 20.84C541.982 20.7547 542.611 20.6267 543.251 20.456L544.819 20.072L546.195 23.432L544.659 24.072C543.699 24.4773 542.729 24.776 541.747 24.968C540.766 25.16 539.817 25.256 538.899 25.256ZM535.251 14.888H541.651C541.523 13.992 541.214 13.32 540.723 12.872C540.233 12.4027 539.529 12.168 538.611 12.168C538.035 12.168 537.513 12.264 537.043 12.456C536.595 12.648 536.222 12.9467 535.923 13.352C535.625 13.7573 535.401 14.2693 535.251 14.888ZM556.593 25.256C554.865 25.256 553.521 24.872 552.561 24.104C551.601 23.336 551.121 22.088 551.121 20.36V12.904H547.697V9.384L551.121 8.488V4.776L556.593 3.464V8.488H561.425V12.904H556.593V18.632C556.593 19.336 556.71 19.8693 556.945 20.232C557.201 20.5733 557.798 20.744 558.737 20.744C558.993 20.744 559.249 20.7333 559.505 20.712C559.761 20.6907 560.038 20.6587 560.337 20.616L561.233 20.488L561.745 24.36L561.009 24.552C560.262 24.7653 559.505 24.936 558.737 25.064C557.99 25.192 557.275 25.256 556.593 25.256Z" fill="url(#paint0_linear_1632_16477)"/>
<defs>
<linearGradient id="paint0_linear_1632_16477" x1="0" y1="14" x2="563" y2="14" gradientUnits="userSpaceOnUse">
<stop stop-color="#0010A4"/>
<stop offset="1" stop-color="#EE1192"/>
</linearGradient>
</defs>
</svg>
