<svg width="72" height="73" viewBox="0 0 72 73" fill="none" xmlns="http://www.w3.org/2000/svg">
<rect y="0.5" width="72" height="72" rx="36" fill="#28C35D"/>
<g clip-path="url(#clip0_2652_4629)">
<path d="M19.9997 55.1667C19.9997 58.1 22.3997 60.5 25.333 60.5H46.6663C49.5997 60.5 51.9997 58.1 51.9997 55.1667V28.5C51.9997 25.5667 49.5997 23.1667 46.6663 23.1667H25.333C22.3997 23.1667 19.9997 25.5667 19.9997 28.5V55.1667ZM51.9997 15.1667H45.333L43.4397 13.2733C42.9597 12.7933 42.2663 12.5 41.573 12.5H30.4263C29.733 12.5 29.0397 12.7933 28.5597 13.2733L26.6663 15.1667H19.9997C18.533 15.1667 17.333 16.3667 17.333 17.8333C17.333 19.3 18.533 20.5 19.9997 20.5H51.9997C53.4663 20.5 54.6663 19.3 54.6663 17.8333C54.6663 16.3667 53.4663 15.1667 51.9997 15.1667Z" fill="#14803E"/>
</g>
<defs>
<clipPath id="clip0_2652_4629">
<rect width="64" height="64" fill="white" transform="translate(4 4.5)"/>
</clipPath>
</defs>
</svg>
